<mxfile host="65bd71144e">
    <diagram id="2Pcy0IRxgb2vHmyPsa8f" name="Страница 1">
        <mxGraphModel dx="552" dy="460" grid="1" gridSize="10" guides="1" tooltips="1" connect="1" arrows="1" fold="1" page="1" pageScale="1" pageWidth="827" pageHeight="1169" math="0" shadow="0">
            <root>
                <mxCell id="0"/>
                <mxCell id="1" parent="0"/>
                <mxCell id="2" value="" style="edgeStyle=none;html=1;" edge="1" parent="1" source="DTUgruY3vjBteYP45iIx-1" target="DTUgruY3vjBteYP45iIx-2">
                    <mxGeometry relative="1" as="geometry"/>
                </mxCell>
                <mxCell id="DTUgruY3vjBteYP45iIx-1" value="Array" style="rounded=1;whiteSpace=wrap;html=1;" vertex="1" parent="1">
                    <mxGeometry x="180" y="40" width="120" height="60" as="geometry"/>
                </mxCell>
                <mxCell id="3" value="" style="edgeStyle=none;html=1;" edge="1" parent="1" source="DTUgruY3vjBteYP45iIx-2" target="DTUgruY3vjBteYP45iIx-3">
                    <mxGeometry relative="1" as="geometry"/>
                </mxCell>
                <mxCell id="DTUgruY3vjBteYP45iIx-2" value="string[] array1&lt;br&gt;srting[] array2&lt;br&gt;int count = 0" style="shape=parallelogram;perimeter=parallelogramPerimeter;whiteSpace=wrap;html=1;fixedSize=1;" vertex="1" parent="1">
                    <mxGeometry x="180" y="130" width="120" height="60" as="geometry"/>
                </mxCell>
                <mxCell id="4" value="" style="edgeStyle=none;html=1;" edge="1" parent="1" source="DTUgruY3vjBteYP45iIx-3" target="DTUgruY3vjBteYP45iIx-4">
                    <mxGeometry relative="1" as="geometry"/>
                </mxCell>
                <mxCell id="DTUgruY3vjBteYP45iIx-3" value="for (int i = 0;&lt;br&gt;i &amp;lt; array1.length;&lt;br&gt;i++)" style="shape=hexagon;perimeter=hexagonPerimeter2;whiteSpace=wrap;html=1;fixedSize=1;" vertex="1" parent="1">
                    <mxGeometry x="180" y="220" width="120" height="80" as="geometry"/>
                </mxCell>
                <mxCell id="6" style="edgeStyle=none;html=1;exitX=1;exitY=0.5;exitDx=0;exitDy=0;entryX=0.5;entryY=1;entryDx=0;entryDy=0;" edge="1" parent="1" source="DTUgruY3vjBteYP45iIx-4" target="DTUgruY3vjBteYP45iIx-5">
                    <mxGeometry relative="1" as="geometry">
                        <Array as="points">
                            <mxPoint x="465" y="380"/>
                        </Array>
                    </mxGeometry>
                </mxCell>
                <mxCell id="7" style="edgeStyle=none;html=1;entryX=0;entryY=0.5;entryDx=0;entryDy=0;" edge="1" parent="1" target="DTUgruY3vjBteYP45iIx-3">
                    <mxGeometry relative="1" as="geometry">
                        <mxPoint x="130" y="380" as="sourcePoint"/>
                        <Array as="points">
                            <mxPoint x="70" y="380"/>
                            <mxPoint x="70" y="260"/>
                        </Array>
                    </mxGeometry>
                </mxCell>
                <mxCell id="DTUgruY3vjBteYP45iIx-4" value="if (array1[i].length &amp;lt;= 3)" style="rhombus;whiteSpace=wrap;html=1;" vertex="1" parent="1">
                    <mxGeometry x="130" y="340" width="220" height="80" as="geometry"/>
                </mxCell>
                <mxCell id="5" style="edgeStyle=none;html=1;entryX=1;entryY=0.5;entryDx=0;entryDy=0;" edge="1" parent="1" source="DTUgruY3vjBteYP45iIx-5" target="DTUgruY3vjBteYP45iIx-3">
                    <mxGeometry relative="1" as="geometry"/>
                </mxCell>
                <mxCell id="DTUgruY3vjBteYP45iIx-5" value="array2[count] = array[i]&lt;br&gt;count++" style="rounded=0;whiteSpace=wrap;html=1;" vertex="1" parent="1">
                    <mxGeometry x="390" y="230" width="150" height="60" as="geometry"/>
                </mxCell>
                <mxCell id="8" value="No" style="text;html=1;align=center;verticalAlign=middle;resizable=0;points=[];autosize=1;strokeColor=none;fillColor=none;" vertex="1" parent="1">
                    <mxGeometry x="75" y="330" width="30" height="20" as="geometry"/>
                </mxCell>
                <mxCell id="9" value="Yes" style="text;html=1;align=center;verticalAlign=middle;resizable=0;points=[];autosize=1;strokeColor=none;fillColor=none;" vertex="1" parent="1">
                    <mxGeometry x="390" y="350" width="40" height="20" as="geometry"/>
                </mxCell>
            </root>
        </mxGraphModel>
    </diagram>
</mxfile>